# WaveFront *.obj file (generated by Autodesk ATF)

mtllib 9b19bf7d-19c4-409e-b8b0-5b6950cbca8a.mtl

g Body1

v -2.500000 -98.183644 2.015007
v -92.813856 -127.528394 2.015007
v -92.813856 -127.528394 1.015007
v -2.500000 -98.183644 1.015007
v -2.500000 -1.816356 2.015007
v -2.500000 -1.816356 1.015007
v -92.813856 27.528394 2.015007
v -92.813856 27.528394 1.015007
v -1.000000 -0.726543 2.015007
v -92.813856 29.105588 2.015007
v -92.813856 29.105588 1.015007
v -1.000000 -0.726543 1.015007
v -1.000000 -99.273457 2.015007
v -1.000000 -99.273457 1.015007
v -92.813856 -129.105588 2.015007
v -92.813856 -129.105588 1.015007
v -110.500003 27.528394 2.015007
v -110.500003 27.528394 1.015007
v -110.500003 -127.528394 2.015007
v -110.500003 -127.528394 1.015007
v -112.000003 -129.105588 2.015007
v -112.000003 -129.105588 1.015007
v -112.000003 29.105588 2.015007
v -112.000003 29.105588 1.015007
v -112.813856 30.157050 2.015007
v -112.813856 -130.157050 2.015007
v -92.813856 -130.157050 2.015007
v -0.000000 -100.000000 2.015007
v 0.000000 0.000000 2.015007
v -92.813856 30.157050 2.015007
v -112.813856 -130.157050 0.015007
v -92.813856 -130.157050 0.015007
v -0.000000 -100.000000 0.015007
v 0.000000 0.000000 0.015007
v -92.813856 30.157050 0.015007
v -112.813856 30.157050 0.015007
vt -9.496161 0.300000 0.000000
vt -0.000000 0.300000 0.000000
vt -9.496161 0.400000 0.000000
vt -0.000000 0.400000 0.000000
vt -9.636729 0.300000 0.000000
vt -0.000000 0.300000 0.000000
vt -9.636729 0.400000 0.000000
vt -0.000000 0.400000 0.000000
vt -9.496161 0.300000 0.000000
vt 0.000000 0.300000 0.000000
vt -9.496161 0.400000 0.000000
vt 0.000000 0.400000 0.000000
vt -9.653880 0.300000 0.000000
vt -0.000000 0.300000 0.000000
vt -9.653880 0.400000 0.000000
vt -0.000000 0.400000 0.000000
vt -9.854691 0.300000 0.000000
vt -0.000000 0.300000 0.000000
vt -9.854691 0.400000 0.000000
vt -0.000000 0.400000 0.000000
vt -9.653880 0.300000 0.000000
vt -0.000000 0.300000 0.000000
vt -9.653880 0.400000 0.000000
vt -0.000000 0.400000 0.000000
vt -1.768615 0.300000 0.000000
vt -0.000000 0.300000 0.000000
vt -1.768615 0.400000 0.000000
vt -0.000000 0.400000 0.000000
vt -1.768615 0.300000 0.000000
vt -0.000000 0.300000 0.000000
vt -1.768615 0.400000 0.000000
vt -0.000000 0.400000 0.000000
vt -15.505679 0.300000 0.000000
vt -0.000000 0.300000 0.000000
vt -15.505679 0.400000 0.000000
vt -0.000000 0.400000 0.000000
vt -1.918615 0.300000 0.000000
vt -0.000000 0.300000 0.000000
vt -1.918615 0.400000 0.000000
vt -0.000000 0.400000 0.000000
vt -1.918615 0.300000 0.000000
vt -0.000000 0.300000 0.000000
vt -1.918615 0.400000 0.000000
vt -0.000000 0.400000 0.000000
vt -15.821118 0.300000 0.000000
vt 0.000000 0.300000 0.000000
vt -15.821118 0.400000 0.000000
vt 0.000000 0.400000 0.000000
vt 3.517595 7.910559 0.000000
vt 3.367595 7.752839 0.000000
vt 3.517595 -7.910559 0.000000
vt 3.367595 -7.752839 0.000000
vt 1.598980 -7.910559 0.000000
vt 1.598980 -7.752839 0.000000
vt -7.432405 -4.818364 0.000000
vt 1.598980 7.910559 0.000000
vt 1.598980 7.752839 0.000000
vt -7.432405 4.818364 0.000000
vt -7.582405 4.927346 0.000000
vt -7.582405 -4.927346 0.000000
vt -3.640693 8.015705 0.000000
vt -5.640693 8.015705 0.000000
vt -5.559307 7.910559 0.000000
vt -5.640693 -8.015705 0.000000
vt -5.559307 -7.910559 0.000000
vt -3.640693 -8.015705 0.000000
vt -3.640693 -7.910559 0.000000
vt 5.540693 -4.927346 0.000000
vt 5.640693 -5.000000 0.000000
vt 5.540693 4.927346 0.000000
vt 5.640693 5.000000 0.000000
vt -3.640693 7.910559 0.000000
vt 0.000000 0.000000 0.000000
vt 2.000000 0.000000 0.000000
vt 0.000000 0.200000 0.000000
vt 2.000000 0.200000 0.000000
vt 0.000000 0.000000 0.000000
vt 9.759026 0.000000 0.000000
vt 0.000000 0.200000 0.000000
vt 9.759026 0.200000 0.000000
vt 0.000000 0.000000 0.000000
vt 10.000000 0.000000 0.000000
vt 0.000000 0.200000 0.000000
vt 10.000000 0.200000 0.000000
vt 0.000000 0.000000 0.000000
vt 9.759026 0.000000 0.000000
vt 0.000000 0.200000 0.000000
vt 9.759026 0.200000 0.000000
vt 0.000000 0.000000 0.000000
vt 2.000000 0.000000 0.000000
vt 0.000000 0.200000 0.000000
vt 2.000000 0.200000 0.000000
vt 0.000000 0.000000 0.000000
vt 16.031410 0.000000 0.000000
vt 0.000000 0.200000 0.000000
vt 16.031410 0.200000 0.000000
vt -5.640693 8.015705 0.000000
vt -5.640693 -8.015705 0.000000
vt -3.640693 8.015705 0.000000
vt -3.640693 -8.015705 0.000000
vt 5.640693 -5.000000 0.000000
vt 5.640693 5.000000 0.000000
vt -5.409307 7.752839 0.000000
vt -5.409307 -7.752839 0.000000
vt -3.640693 7.752839 0.000000
vt -3.640693 -7.752839 0.000000
vt 5.390693 -4.818364 0.000000
vt 5.390693 4.818364 0.000000
vn 0.030902 -0.095106 -0.000000
vn 0.030902 -0.095106 -0.000000
vn 0.030902 -0.095106 -0.000000
vn 0.030902 -0.095106 -0.000000
vn 0.100000 -0.000000 -0.000000
vn 0.100000 -0.000000 -0.000000
vn 0.100000 -0.000000 -0.000000
vn 0.100000 -0.000000 -0.000000
vn 0.030902 0.095106 0.000000
vn 0.030902 0.095106 0.000000
vn 0.030902 0.095106 0.000000
vn 0.030902 0.095106 0.000000
vn -0.030902 -0.095106 -0.000000
vn -0.030902 -0.095106 -0.000000
vn -0.030902 -0.095106 -0.000000
vn -0.030902 -0.095106 -0.000000
vn -0.100000 0.000000 0.000000
vn -0.100000 0.000000 0.000000
vn -0.100000 0.000000 0.000000
vn -0.100000 0.000000 0.000000
vn -0.030902 0.095106 0.000000
vn -0.030902 0.095106 0.000000
vn -0.030902 0.095106 0.000000
vn -0.030902 0.095106 0.000000
vn 0.000000 0.100000 0.000000
vn 0.000000 0.100000 0.000000
vn 0.000000 0.100000 0.000000
vn 0.000000 0.100000 0.000000
vn -0.000000 -0.100000 -0.000000
vn -0.000000 -0.100000 -0.000000
vn -0.000000 -0.100000 -0.000000
vn -0.000000 -0.100000 -0.000000
vn -0.100000 0.000000 0.000000
vn -0.100000 0.000000 0.000000
vn -0.100000 0.000000 0.000000
vn -0.100000 0.000000 0.000000
vn 0.000000 0.100000 0.000000
vn 0.000000 0.100000 0.000000
vn 0.000000 0.100000 0.000000
vn 0.000000 0.100000 0.000000
vn -0.000000 -0.100000 -0.000000
vn -0.000000 -0.100000 -0.000000
vn -0.000000 -0.100000 -0.000000
vn -0.000000 -0.100000 -0.000000
vn 0.100000 -0.000000 -0.000000
vn 0.100000 -0.000000 -0.000000
vn 0.100000 -0.000000 -0.000000
vn 0.100000 -0.000000 -0.000000
vn -0.000000 -0.000000 0.100000
vn -0.000000 -0.000000 0.100000
vn -0.000000 -0.000000 0.100000
vn -0.000000 -0.000000 0.100000
vn -0.000000 -0.000000 0.100000
vn -0.000000 -0.000000 0.100000
vn -0.000000 -0.000000 0.100000
vn -0.000000 -0.000000 0.100000
vn -0.000000 -0.000000 0.100000
vn -0.000000 -0.000000 0.100000
vn -0.000000 -0.000000 0.100000
vn -0.000000 -0.000000 0.100000
vn -0.000000 -0.000000 0.100000
vn -0.000000 -0.000000 0.100000
vn -0.000000 -0.000000 0.100000
vn -0.000000 -0.000000 0.100000
vn -0.000000 -0.000000 0.100000
vn -0.000000 -0.000000 0.100000
vn -0.000000 -0.000000 0.100000
vn -0.000000 -0.000000 0.100000
vn -0.000000 -0.000000 0.100000
vn -0.000000 -0.000000 0.100000
vn -0.000000 -0.000000 0.100000
vn -0.000000 -0.000000 0.100000
vn -0.000000 -0.100000 -0.000000
vn -0.000000 -0.100000 -0.000000
vn -0.000000 -0.100000 -0.000000
vn -0.000000 -0.100000 -0.000000
vn 0.030902 -0.095106 -0.000000
vn 0.030902 -0.095106 -0.000000
vn 0.030902 -0.095106 -0.000000
vn 0.030902 -0.095106 -0.000000
vn 0.100000 -0.000000 -0.000000
vn 0.100000 -0.000000 -0.000000
vn 0.100000 -0.000000 -0.000000
vn 0.100000 -0.000000 -0.000000
vn 0.030902 0.095106 0.000000
vn 0.030902 0.095106 0.000000
vn 0.030902 0.095106 0.000000
vn 0.030902 0.095106 0.000000
vn -0.000000 0.100000 0.000000
vn -0.000000 0.100000 0.000000
vn -0.000000 0.100000 0.000000
vn -0.000000 0.100000 0.000000
vn -0.100000 0.000000 0.000000
vn -0.100000 0.000000 0.000000
vn -0.100000 0.000000 0.000000
vn -0.100000 0.000000 0.000000
vn 0.000000 0.000000 -0.100000
vn 0.000000 0.000000 -0.100000
vn 0.000000 0.000000 -0.100000
vn 0.000000 0.000000 -0.100000
vn 0.000000 0.000000 -0.100000
vn 0.000000 0.000000 -0.100000
vn -0.000000 -0.000000 0.100000
vn -0.000000 -0.000000 0.100000
vn -0.000000 -0.000000 0.100000
vn -0.000000 -0.000000 0.100000
vn -0.000000 -0.000000 0.100000
vn -0.000000 -0.000000 0.100000
usemtl Steel_-_Satin
f 1/1/1 2/2/2 4/3/3
f 4/3/3 2/2/2 3/4/4
f 5/5/5 1/6/6 6/7/7
f 6/7/7 1/6/6 4/8/8
f 7/9/9 5/10/10 8/11/11
f 8/11/11 5/10/10 6/12/12
f 9/13/13 10/14/14 12/15/15
f 12/15/15 10/14/14 11/16/16
f 13/17/17 9/18/18 14/19/19
f 14/19/19 9/18/18 12/20/20
f 15/21/21 13/22/22 16/23/23
f 16/23/23 13/22/22 14/24/24
f 17/25/25 7/26/26 18/27/27
f 18/27/27 7/26/26 8/28/28
f 2/29/29 19/30/30 3/31/31
f 3/31/31 19/30/30 20/32/32
f 19/33/33 17/34/34 20/35/35
f 20/35/35 17/34/34 18/36/36
f 21/37/37 15/38/38 22/39/39
f 22/39/39 15/38/38 16/40/40
f 10/41/41 23/42/42 11/43/43
f 11/43/43 23/42/42 24/44/44
f 23/45/45 21/46/46 24/47/47
f 24/47/47 21/46/46 22/48/48
f 22/49/49 20/50/50 24/51/51
f 24/51/51 20/50/50 18/52/52
f 24/51/51 18/52/52 11/53/53
f 11/53/53 18/52/52 8/54/54
f 11/53/53 8/54/54 6/55/55
f 22/49/49 16/56/56 20/50/50
f 20/50/50 16/56/56 3/57/57
f 3/57/57 16/56/56 4/58/58
f 4/58/58 16/56/56 14/59/59
f 4/58/58 14/59/59 12/60/60
f 4/58/58 12/60/60 6/55/55
f 6/55/55 12/60/60 11/53/53
f 30/61/61 25/62/62 23/63/63
f 23/63/63 25/62/62 26/64/64
f 23/63/63 26/64/64 21/65/65
f 21/65/65 26/64/64 27/66/66
f 21/65/65 27/66/66 15/67/67
f 15/67/67 27/66/66 13/68/68
f 13/68/68 27/66/66 28/69/69
f 13/68/68 28/69/69 9/70/70
f 9/70/70 28/69/69 29/71/71
f 9/70/70 29/71/71 30/61/61
f 23/63/63 10/72/72 30/61/61
f 30/61/61 10/72/72 9/70/70
f 27/73/73 26/74/74 32/75/75
f 32/75/75 26/74/74 31/76/76
f 28/77/77 27/78/78 33/79/79
f 33/79/79 27/78/78 32/80/80
f 29/81/81 28/82/82 34/83/83
f 34/83/83 28/82/82 33/84/84
f 30/85/85 29/86/86 35/87/87
f 35/87/87 29/86/86 34/88/88
f 25/89/89 30/90/90 36/91/91
f 36/91/91 30/90/90 35/92/92
f 26/93/93 25/94/94 31/95/95
f 31/95/95 25/94/94 36/96/96
f 31/97/97 36/98/98 32/99/99
f 32/99/99 36/98/98 35/100/100
f 32/99/99 35/100/100 34/101/101
f 34/101/101 33/102/102 32/99/99
f 17/103/103 19/104/104 7/105/105
f 7/105/105 19/104/104 2/106/106
f 7/105/105 2/106/106 1/107/107
f 1/107/107 5/108/108 7/105/105

# 36 vertices
# 108 texture params
# 108 normals
# 68 facets

# 1 groups
