# WaveFront *.obj file (generated by Autodesk ATF)

mtllib 14852fd0-7592-4c41-a52a-bd1eb47245b9.mtl

g Body1

v 77.000000 -2.900000 63.100001
v 75.000000 -2.900000 63.100001
v 75.000000 -1.100000 63.100001
v 77.000000 -1.100000 63.100001
v 77.000000 -2.900000 82.900001
v 75.000000 -2.900000 82.900001
v 77.000000 -1.100000 82.900001
v 75.000000 -1.100000 82.900001
v 77.000000 -98.900001 63.100001
v 75.000000 -98.900001 63.100001
v 75.000000 -97.100001 63.100001
v 77.000000 -97.100001 63.100001
v 77.000000 -98.900001 82.900001
v 75.000000 -98.900001 82.900001
v 77.000000 -97.100001 82.900001
v 75.000000 -97.100001 82.900001
v 28.000000 -97.000001 63.000001
v 28.000000 -99.000001 63.000001
v 28.000000 -99.000001 83.000001
v 28.000000 -97.000001 83.000001
v 25.000000 -97.000001 63.000001
v 25.000000 -99.000001 63.000001
v 25.000000 -97.000001 83.000001
v 28.000000 -1.000000 63.000001
v 28.000000 -3.000000 63.000001
v 28.000000 -3.000000 83.000001
v 28.000000 -1.000000 83.000001
v 25.000000 -1.000000 63.000001
v 25.000000 -3.000000 63.000001
v 25.000000 -1.000000 83.000001
v 75.000000 -96.000000 6.000000
v 75.000000 -96.000000 96.000000
v 75.000000 -4.000000 96.000000
v 75.000000 -4.000000 6.000000
v 75.000000 0.000000 100.000000
v 75.000000 -100.000000 100.000000
v 75.000000 -100.000000 0.000000
v 75.000000 0.000000 0.000000
v 25.000000 -3.000000 83.000001
v 25.000000 -99.000001 83.000001
v 25.000000 -4.000000 96.000000
v 25.000000 -4.000000 6.000000
v 25.000000 -96.000000 96.000000
v 25.000000 -96.000000 6.000000
v 25.000000 -100.000000 100.000000
v 25.000000 -100.000000 0.000000
v 25.000000 0.000000 100.000000
v 25.000000 0.000000 0.000000
vt -0.200000 0.010000 0.000000
vt -0.000000 0.010000 0.000000
vt -0.200000 0.190000 0.000000
vt -0.000000 0.190000 0.000000
vt 1.990000 0.200000 0.000000
vt 0.010000 0.200000 0.000000
vt 1.990000 0.000000 0.000000
vt 0.010000 0.000000 0.000000
vt -0.000000 -0.190000 0.000000
vt 0.200000 -0.190000 0.000000
vt -0.000000 -0.010000 0.000000
vt 0.200000 -0.010000 0.000000
vt 0.010000 0.000000 0.000000
vt 1.990000 0.000000 0.000000
vt 0.010000 0.200000 0.000000
vt 1.990000 0.200000 0.000000
vt 0.990000 0.090000 0.000000
vt -0.990000 0.090000 0.000000
vt 0.990000 -0.090000 0.000000
vt -0.990000 -0.090000 0.000000
vt -0.200000 0.010000 0.000000
vt -0.000000 0.010000 0.000000
vt -0.200000 0.190000 0.000000
vt -0.000000 0.190000 0.000000
vt 1.990000 0.200000 0.000000
vt 0.010000 0.200000 0.000000
vt 1.990000 0.000000 0.000000
vt 0.010000 0.000000 0.000000
vt -0.000000 -0.190000 0.000000
vt 0.200000 -0.190000 0.000000
vt -0.000000 -0.010000 0.000000
vt 0.200000 -0.010000 0.000000
vt 0.010000 0.000000 0.000000
vt 1.990000 0.000000 0.000000
vt 0.010000 0.200000 0.000000
vt 1.990000 0.200000 0.000000
vt 0.990000 0.090000 0.000000
vt -0.990000 0.090000 0.000000
vt 0.990000 -0.090000 0.000000
vt -0.990000 -0.090000 0.000000
vt -1.000000 -0.100000 0.000000
vt 1.000000 -0.100000 0.000000
vt -1.000000 0.100000 0.000000
vt 1.000000 0.100000 0.000000
vt 0.300000 0.010000 0.000000
vt -0.000000 0.010000 0.000000
vt 0.300000 -0.190000 0.000000
vt -0.000000 -0.190000 0.000000
vt 1.990000 0.300000 0.000000
vt -0.010000 0.300000 0.000000
vt 1.990000 0.000000 0.000000
vt -0.010000 0.000000 0.000000
vt -1.000000 -0.100000 0.000000
vt 1.000000 -0.100000 0.000000
vt -1.000000 0.100000 0.000000
vt 1.000000 0.100000 0.000000
vt 0.300000 0.010000 0.000000
vt -0.000000 0.010000 0.000000
vt 0.300000 -0.190000 0.000000
vt -0.000000 -0.190000 0.000000
vt 1.990000 0.300000 0.000000
vt -0.010000 0.300000 0.000000
vt 1.990000 0.000000 0.000000
vt -0.010000 0.000000 0.000000
vt -3.290000 4.710000 0.000000
vt -4.600000 4.600000 0.000000
vt -1.310000 4.710000 0.000000
vt 4.400000 4.600000 0.000000
vt -1.310000 4.890000 0.000000
vt 5.000000 5.000000 0.000000
vt -5.000000 5.000000 0.000000
vt -3.290000 4.890000 0.000000
vt -5.000000 -5.000000 0.000000
vt -3.290000 -4.890000 0.000000
vt -1.310000 -4.890000 0.000000
vt 5.000000 -5.000000 0.000000
vt 4.400000 -4.600000 0.000000
vt -4.600000 -4.600000 0.000000
vt -3.290000 -4.710000 0.000000
vt -1.310000 -4.710000 0.000000
vt -0.300000 -0.010000 0.000000
vt -0.000000 -0.010000 0.000000
vt -0.300000 0.190000 0.000000
vt -0.000000 0.190000 0.000000
vt 1.990000 0.300000 0.000000
vt -0.010000 0.300000 0.000000
vt 1.990000 0.000000 0.000000
vt -0.010000 0.000000 0.000000
vt -0.300000 -0.010000 0.000000
vt -0.000000 -0.010000 0.000000
vt -0.300000 0.190000 0.000000
vt -0.000000 0.190000 0.000000
vt 1.990000 0.300000 0.000000
vt -0.010000 0.300000 0.000000
vt 1.990000 0.000000 0.000000
vt -0.010000 0.000000 0.000000
vt 0.000000 0.000000 0.000000
vt 9.000000 0.000000 0.000000
vt 0.000000 5.000000 0.000000
vt 9.000000 5.000000 0.000000
vt 0.000000 0.000000 0.000000
vt 9.200000 0.000000 0.000000
vt 0.000000 5.000000 0.000000
vt 9.200000 5.000000 0.000000
vt 0.000000 0.000000 0.000000
vt 9.000000 0.000000 0.000000
vt 0.000000 5.000000 0.000000
vt 9.000000 5.000000 0.000000
vt 0.000000 0.000000 0.000000
vt 9.200000 0.000000 0.000000
vt 0.000000 5.000000 0.000000
vt 9.200000 5.000000 0.000000
vt -0.000000 0.000000 0.000000
vt 10.000000 0.000000 0.000000
vt -0.000000 5.000000 0.000000
vt 10.000000 5.000000 0.000000
vt -0.000000 0.000000 0.000000
vt 10.000000 0.000000 0.000000
vt -0.000000 5.000000 0.000000
vt 10.000000 5.000000 0.000000
vt 0.000000 0.000000 0.000000
vt 10.000000 0.000000 0.000000
vt 0.000000 5.000000 0.000000
vt 10.000000 5.000000 0.000000
vt 0.000000 0.000000 0.000000
vt 10.000000 0.000000 0.000000
vt 0.000000 5.000000 0.000000
vt 10.000000 5.000000 0.000000
vt -4.900000 3.300000 0.000000
vt -4.700000 3.300000 0.000000
vt -4.600000 4.600000 0.000000
vt -4.700000 1.300000 0.000000
vt -4.600000 -4.400000 0.000000
vt -4.900000 1.300000 0.000000
vt -5.000000 -5.000000 0.000000
vt -5.000000 5.000000 0.000000
vt 4.900000 1.300000 0.000000
vt 5.000000 5.000000 0.000000
vt 4.900000 3.300000 0.000000
vt 4.600000 4.600000 0.000000
vt 4.700000 3.300000 0.000000
vt 4.700000 1.300000 0.000000
vt 4.600000 -4.400000 0.000000
vt 5.000000 -5.000000 0.000000
vn 0.000000 0.000000 -0.100000
vn 0.000000 0.000000 -0.100000
vn 0.000000 0.000000 -0.100000
vn 0.000000 0.000000 -0.100000
vn 0.000000 -0.100000 0.000000
vn 0.000000 -0.100000 0.000000
vn 0.000000 -0.100000 0.000000
vn 0.000000 -0.100000 0.000000
vn 0.000000 0.000000 0.100000
vn 0.000000 0.000000 0.100000
vn 0.000000 0.000000 0.100000
vn 0.000000 0.000000 0.100000
vn -0.000000 0.100000 -0.000000
vn -0.000000 0.100000 -0.000000
vn -0.000000 0.100000 -0.000000
vn -0.000000 0.100000 -0.000000
vn 0.100000 0.000000 0.000000
vn 0.100000 0.000000 0.000000
vn 0.100000 0.000000 0.000000
vn 0.100000 0.000000 0.000000
vn 0.000000 0.000000 -0.100000
vn 0.000000 0.000000 -0.100000
vn 0.000000 0.000000 -0.100000
vn 0.000000 0.000000 -0.100000
vn 0.000000 -0.100000 0.000000
vn 0.000000 -0.100000 0.000000
vn 0.000000 -0.100000 0.000000
vn 0.000000 -0.100000 0.000000
vn 0.000000 0.000000 0.100000
vn 0.000000 0.000000 0.100000
vn 0.000000 0.000000 0.100000
vn 0.000000 0.000000 0.100000
vn -0.000000 0.100000 -0.000000
vn -0.000000 0.100000 -0.000000
vn -0.000000 0.100000 -0.000000
vn -0.000000 0.100000 -0.000000
vn 0.100000 0.000000 0.000000
vn 0.100000 0.000000 0.000000
vn 0.100000 0.000000 0.000000
vn 0.100000 0.000000 0.000000
vn -0.100000 0.000000 0.000000
vn -0.100000 0.000000 0.000000
vn -0.100000 0.000000 0.000000
vn -0.100000 0.000000 0.000000
vn 0.000000 0.000000 0.100000
vn 0.000000 0.000000 0.100000
vn 0.000000 0.000000 0.100000
vn 0.000000 0.000000 0.100000
vn 0.000000 -0.100000 0.000000
vn 0.000000 -0.100000 0.000000
vn 0.000000 -0.100000 0.000000
vn 0.000000 -0.100000 0.000000
vn -0.100000 0.000000 0.000000
vn -0.100000 0.000000 0.000000
vn -0.100000 0.000000 0.000000
vn -0.100000 0.000000 0.000000
vn 0.000000 0.000000 0.100000
vn 0.000000 0.000000 0.100000
vn 0.000000 0.000000 0.100000
vn 0.000000 0.000000 0.100000
vn 0.000000 -0.100000 0.000000
vn 0.000000 -0.100000 0.000000
vn 0.000000 -0.100000 0.000000
vn 0.000000 -0.100000 0.000000
vn 0.100000 0.000000 0.000000
vn 0.100000 0.000000 0.000000
vn 0.100000 0.000000 0.000000
vn 0.100000 0.000000 0.000000
vn 0.100000 0.000000 0.000000
vn 0.100000 0.000000 0.000000
vn 0.100000 0.000000 0.000000
vn 0.100000 0.000000 0.000000
vn 0.100000 0.000000 0.000000
vn 0.100000 0.000000 0.000000
vn 0.100000 0.000000 0.000000
vn 0.100000 0.000000 0.000000
vn 0.100000 0.000000 0.000000
vn 0.100000 0.000000 0.000000
vn 0.100000 0.000000 0.000000
vn 0.100000 0.000000 0.000000
vn 0.000000 0.000000 -0.100000
vn 0.000000 0.000000 -0.100000
vn 0.000000 0.000000 -0.100000
vn 0.000000 0.000000 -0.100000
vn -0.000000 0.100000 -0.000000
vn -0.000000 0.100000 -0.000000
vn -0.000000 0.100000 -0.000000
vn -0.000000 0.100000 -0.000000
vn 0.000000 0.000000 -0.100000
vn 0.000000 0.000000 -0.100000
vn 0.000000 0.000000 -0.100000
vn 0.000000 0.000000 -0.100000
vn -0.000000 0.100000 -0.000000
vn -0.000000 0.100000 -0.000000
vn -0.000000 0.100000 -0.000000
vn -0.000000 0.100000 -0.000000
vn 0.000000 -0.100000 -0.000000
vn 0.000000 -0.100000 -0.000000
vn 0.000000 -0.100000 -0.000000
vn 0.000000 -0.100000 -0.000000
vn 0.000000 0.000000 -0.100000
vn 0.000000 0.000000 -0.100000
vn 0.000000 0.000000 -0.100000
vn 0.000000 0.000000 -0.100000
vn 0.000000 0.100000 0.000000
vn 0.000000 0.100000 0.000000
vn 0.000000 0.100000 0.000000
vn 0.000000 0.100000 0.000000
vn 0.000000 0.000000 0.100000
vn 0.000000 0.000000 0.100000
vn 0.000000 0.000000 0.100000
vn 0.000000 0.000000 0.100000
vn 0.000000 -0.100000 0.000000
vn 0.000000 -0.100000 0.000000
vn 0.000000 -0.100000 0.000000
vn 0.000000 -0.100000 0.000000
vn 0.000000 0.000000 0.100000
vn 0.000000 0.000000 0.100000
vn 0.000000 0.000000 0.100000
vn 0.000000 0.000000 0.100000
vn 0.000000 0.100000 0.000000
vn 0.000000 0.100000 0.000000
vn 0.000000 0.100000 0.000000
vn 0.000000 0.100000 0.000000
vn 0.000000 0.000000 -0.100000
vn 0.000000 0.000000 -0.100000
vn 0.000000 0.000000 -0.100000
vn 0.000000 0.000000 -0.100000
vn -0.100000 0.000000 0.000000
vn -0.100000 0.000000 0.000000
vn -0.100000 0.000000 0.000000
vn -0.100000 0.000000 0.000000
vn -0.100000 0.000000 0.000000
vn -0.100000 0.000000 0.000000
vn -0.100000 0.000000 0.000000
vn -0.100000 0.000000 0.000000
vn -0.100000 0.000000 0.000000
vn -0.100000 0.000000 0.000000
vn -0.100000 0.000000 0.000000
vn -0.100000 0.000000 0.000000
vn -0.100000 0.000000 0.000000
vn -0.100000 0.000000 0.000000
vn -0.100000 0.000000 0.000000
vn -0.100000 0.000000 0.000000
usemtl Steel_-_Satin
f 1/1/1 2/2/2 4/3/3
f 4/3/3 2/2/2 3/4/4
f 1/5/5 5/6/6 2/7/7
f 2/7/7 5/6/6 6/8/8
f 6/9/9 5/10/10 8/11/11
f 8/11/11 5/10/10 7/12/12
f 3/13/13 8/14/14 4/15/15
f 4/15/15 8/14/14 7/16/16
f 4/17/17 7/18/18 1/19/19
f 1/19/19 7/18/18 5/20/20
f 9/21/21 10/22/22 12/23/23
f 12/23/23 10/22/22 11/24/24
f 9/25/25 13/26/26 10/27/27
f 10/27/27 13/26/26 14/28/28
f 14/29/29 13/30/30 16/31/31
f 16/31/31 13/30/30 15/32/32
f 11/33/33 16/34/34 12/35/35
f 12/35/35 16/34/34 15/36/36
f 12/37/37 15/38/38 9/39/39
f 9/39/39 15/38/38 13/40/40
f 18/41/41 19/42/42 17/43/43
f 17/43/43 19/42/42 20/44/44
f 17/45/45 21/46/46 18/47/47
f 18/47/47 21/46/46 22/48/48
f 17/49/49 20/50/50 21/51/51
f 21/51/51 20/50/50 23/52/52
f 25/53/53 26/54/54 24/55/55
f 24/55/55 26/54/54 27/56/56
f 24/57/57 28/58/58 25/59/59
f 25/59/59 28/58/58 29/60/60
f 24/61/61 27/62/62 28/63/63
f 28/63/63 27/62/62 30/64/64
f 6/65/65 33/66/66 2/67/67
f 2/67/67 33/66/66 34/68/68
f 2/67/67 34/68/68 3/69/69
f 3/69/69 34/68/68 38/70/70
f 3/69/69 38/70/70 35/71/71
f 6/65/65 8/72/72 33/66/66
f 33/66/66 8/72/72 35/71/71
f 33/66/66 35/71/71 36/73/73
f 8/72/72 3/69/69 35/71/71
f 14/74/74 36/73/73 10/75/75
f 10/75/75 36/73/73 37/76/76
f 10/75/75 37/76/76 31/77/77
f 31/77/77 37/76/76 34/68/68
f 34/68/68 37/76/76 38/70/70
f 36/73/73 14/74/74 32/78/78
f 32/78/78 14/74/74 16/79/79
f 32/78/78 16/79/79 11/80/80
f 32/78/78 11/80/80 31/77/77
f 31/77/77 11/80/80 10/75/75
f 32/78/78 33/66/66 36/73/73
f 26/81/81 39/82/82 27/83/83
f 27/83/83 39/82/82 30/84/84
f 26/85/85 25/86/86 39/87/87
f 39/87/87 25/86/86 29/88/88
f 19/89/89 40/90/90 20/91/91
f 20/91/91 40/90/90 23/92/92
f 19/93/93 18/94/94 40/95/95
f 40/95/95 18/94/94 22/96/96
f 41/97/97 42/98/98 33/99/99
f 33/99/99 42/98/98 34/100/100
f 43/101/101 41/102/102 32/103/103
f 32/103/103 41/102/102 33/104/104
f 44/105/105 43/106/106 31/107/107
f 31/107/107 43/106/106 32/108/108
f 42/109/109 44/110/110 34/111/111
f 34/111/111 44/110/110 31/112/112
f 45/113/113 46/114/114 36/115/115
f 36/115/115 46/114/114 37/116/116
f 47/117/117 45/118/118 35/119/119
f 35/119/119 45/118/118 36/120/120
f 48/121/121 47/122/122 38/123/123
f 38/123/123 47/122/122 35/124/124
f 46/125/125 48/126/126 37/127/127
f 37/127/127 48/126/126 38/128/128
f 30/129/129 39/130/130 41/131/131
f 41/131/131 39/130/130 29/132/132
f 41/131/131 29/132/132 42/133/133
f 42/133/133 29/132/132 28/134/134
f 42/133/133 28/134/134 48/135/135
f 48/135/135 28/134/134 47/136/136
f 47/136/136 28/134/134 30/129/129
f 47/136/136 30/129/129 41/131/131
f 22/137/137 45/138/138 40/139/139
f 40/139/139 45/138/138 43/140/140
f 40/139/139 43/140/140 23/141/141
f 23/141/141 43/140/140 21/142/142
f 21/142/142 43/140/140 44/143/143
f 21/142/142 44/143/143 22/137/137
f 22/137/137 44/143/143 46/144/144
f 22/137/137 46/144/144 45/138/138
f 44/143/143 42/133/133 46/144/144
f 46/144/144 42/133/133 48/135/135
f 41/131/131 43/140/140 47/136/136
f 47/136/136 43/140/140 45/138/138
# 48 vertices
# 144 texture params
# 144 normals
# 96 facets

# 1 groups
