# WaveFront *.obj file (generated by Autodesk ATF)

mtllib 36d6a121-3ac0-4947-b4be-ed7b538f016d.mtl

g Body1

v 74.945364 -26.200000 26.000000
v 154.945364 -26.200000 26.000000
v 154.945364 -26.200000 10.000000
v 74.945364 -26.200000 10.000000
v 154.945364 -6.200000 10.000000
v 74.945364 -6.200000 10.000000
v 154.945364 -73.800000 26.000000
v 74.945364 -73.800000 26.000000
v 74.945364 -73.800000 10.000000
v 154.945364 -73.800000 10.000000
v 74.945364 -93.800000 10.000000
v 154.945364 -93.800000 10.000000
v 154.945364 -6.200000 6.000000
v 74.945364 -6.200000 6.000000
v 84.945364 -50.500000 26.000000
v 84.945364 -49.500000 26.000000
v 85.030549 -48.852952 26.000000
v 85.280300 -48.250000 26.000000
v 85.677597 -47.732233 26.000000
v 86.195364 -47.334936 26.000000
v 86.798316 -47.085185 26.000000
v 87.445364 -47.000000 26.000000
v 142.445364 -47.000000 26.000000
v 143.092411 -47.085185 26.000000
v 143.695364 -47.334936 26.000000
v 144.213131 -47.732233 26.000000
v 144.610427 -48.250000 26.000000
v 144.860178 -48.852952 26.000000
v 144.945364 -49.500000 26.000000
v 144.945364 -50.500000 26.000000
v 144.860178 -51.147048 26.000000
v 144.610427 -51.750000 26.000000
v 144.213131 -52.267767 26.000000
v 143.695364 -52.665064 26.000000
v 143.092411 -52.914815 26.000000
v 142.445364 -53.000000 26.000000
v 87.445364 -53.000000 26.000000
v 86.798316 -52.914815 26.000000
v 86.195364 -52.665064 26.000000
v 85.677597 -52.267767 26.000000
v 85.280300 -51.750000 26.000000
v 85.030549 -51.147048 26.000000
v 74.945364 -93.800000 6.000000
v 154.945364 -93.800000 6.000000
v 142.445364 -47.000000 20.282736
v 143.092411 -47.085185 20.282736
v 143.695364 -47.334936 20.282736
v 144.213131 -47.732233 20.282736
v 144.610427 -48.250000 20.282736
v 144.860178 -48.852952 20.282736
v 144.945364 -49.500000 20.282736
v 144.945364 -50.500000 20.282736
v 144.860178 -51.147048 20.282736
v 144.610427 -51.750000 20.282736
v 144.213131 -52.267767 20.282736
v 143.695364 -52.665064 20.282736
v 143.092411 -52.914815 20.282736
v 142.445364 -53.000000 20.282736
v 87.445364 -53.000000 20.282736
v 86.798316 -52.914815 20.282736
v 86.195364 -52.665064 20.282736
v 85.677597 -52.267767 20.282736
v 85.280300 -51.750000 20.282736
v 85.030549 -51.147048 20.282736
v 84.945364 -50.500000 20.282736
v 84.945364 -49.500000 20.282736
v 85.030549 -48.852952 20.282736
v 85.280300 -48.250000 20.282736
v 85.677597 -47.732233 20.282736
v 86.195364 -47.334936 20.282736
v 86.798316 -47.085185 20.282736
v 87.445364 -47.000000 20.282736
v 74.945364 -40.000000 20.282736
v 154.945364 -40.000000 20.282736
v 154.945364 -60.000000 20.282736
v 74.945364 -60.000000 20.282736
v 74.945364 -40.000000 6.000000
v 154.945364 -40.000000 6.000000
v 154.945364 -60.000000 6.000000
v 74.945364 -60.000000 6.000000
vt -8.000000 0.000000 0.000000
vt 0.000000 0.000000 0.000000
vt -8.000000 1.600000 0.000000
vt -0.000000 1.600000 0.000000
vt 4.000000 1.000000 0.000000
vt -4.000000 1.000000 0.000000
vt 4.000000 -1.000000 0.000000
vt -4.000000 -1.000000 0.000000
vt -8.000000 0.000000 0.000000
vt -0.000000 0.000000 0.000000
vt -8.000000 1.600000 0.000000
vt -0.000000 1.600000 0.000000
vt -4.000000 -1.000000 0.000000
vt 4.000000 -1.000000 0.000000
vt -4.000000 1.000000 0.000000
vt 4.000000 1.000000 0.000000
vt 0.400000 0.000000 0.000000
vt -0.000000 0.000000 0.000000
vt 0.400000 -8.000000 0.000000
vt -0.000000 -8.000000 0.000000
vt -4.000000 5.080000 0.000000
vt 2.750000 3.000000 0.000000
vt 4.000000 5.080000 0.000000
vt 2.814705 2.991481 0.000000
vt 2.875000 2.966506 0.000000
vt -4.000000 0.320000 0.000000
vt -3.000000 2.750000 0.000000
vt -2.991481 2.814705 0.000000
vt -2.966506 2.875000 0.000000
vt 4.000000 0.320000 0.000000
vt -2.750000 2.400000 0.000000
vt -2.814705 2.408519 0.000000
vt -2.875000 2.433494 0.000000
vt 3.000000 2.750000 0.000000
vt 3.000000 2.650000 0.000000
vt 2.991481 2.585295 0.000000
vt -2.991481 2.585295 0.000000
vt -3.000000 2.650000 0.000000
vt -2.926777 2.926777 0.000000
vt -2.875000 2.966506 0.000000
vt -2.814705 2.991481 0.000000
vt -2.750000 3.000000 0.000000
vt 2.926777 2.926777 0.000000
vt 2.966506 2.875000 0.000000
vt 2.991481 2.814705 0.000000
vt 2.966506 2.525000 0.000000
vt 2.926777 2.473223 0.000000
vt 2.875000 2.433494 0.000000
vt 2.814705 2.408519 0.000000
vt 2.750000 2.400000 0.000000
vt -2.926777 2.473223 0.000000
vt -2.966506 2.525000 0.000000
vt -0.400000 0.000000 0.000000
vt -0.000000 0.000000 0.000000
vt -0.400000 8.000000 0.000000
vt -0.000000 8.000000 0.000000
vt 0.571726 0.196350 0.000000
vt -0.000000 0.196350 0.000000
vt 0.571726 0.130900 0.000000
vt 0.000000 0.130900 0.000000
vt 0.571726 0.065450 0.000000
vt -0.000000 0.065450 0.000000
vt 0.571726 0.000000 0.000000
vt 0.000000 0.000000 0.000000
vt 0.571726 -0.065450 0.000000
vt 0.000000 -0.065450 0.000000
vt 0.571726 -0.130900 0.000000
vt -0.000000 -0.130900 0.000000
vt 0.571726 -0.196350 0.000000
vt -0.000000 -0.196350 0.000000
vt -0.350000 0.000000 0.000000
vt -0.250000 0.000000 0.000000
vt -0.350000 0.571726 0.000000
vt -0.250000 0.571726 0.000000
vt 0.571726 0.196350 0.000000
vt -0.000000 0.196350 0.000000
vt 0.571726 0.130900 0.000000
vt -0.000000 0.130900 0.000000
vt 0.571726 0.065450 0.000000
vt 0.000000 0.065450 0.000000
vt 0.571726 0.000000 0.000000
vt 0.000000 0.000000 0.000000
vt 0.571726 -0.065450 0.000000
vt -0.000000 -0.065450 0.000000
vt 0.571726 -0.130900 0.000000
vt 0.000000 -0.130900 0.000000
vt 0.571726 -0.196350 0.000000
vt -0.000000 -0.196350 0.000000
vt -5.750000 0.000000 0.000000
vt -0.250000 0.000000 0.000000
vt -5.750000 0.571726 0.000000
vt -0.250000 0.571726 0.000000
vt 0.571726 0.196350 0.000000
vt -0.000000 0.196350 0.000000
vt 0.571726 0.130900 0.000000
vt 0.000000 0.130900 0.000000
vt 0.571726 0.065450 0.000000
vt -0.000000 0.065450 0.000000
vt 0.571726 0.000000 0.000000
vt 0.000000 0.000000 0.000000
vt 0.571726 -0.065450 0.000000
vt 0.000000 -0.065450 0.000000
vt 0.571726 -0.130900 0.000000
vt -0.000000 -0.130900 0.000000
vt 0.571726 -0.196350 0.000000
vt -0.000000 -0.196350 0.000000
vt -0.350000 0.000000 0.000000
vt -0.250000 0.000000 0.000000
vt -0.350000 0.571726 0.000000
vt -0.250000 0.571726 0.000000
vt 0.571726 0.196350 0.000000
vt -0.000000 0.196350 0.000000
vt 0.571726 0.130900 0.000000
vt -0.000000 0.130900 0.000000
vt 0.571726 0.065450 0.000000
vt 0.000000 0.065450 0.000000
vt 0.571726 0.000000 0.000000
vt 0.000000 0.000000 0.000000
vt 0.571726 -0.065450 0.000000
vt -0.000000 -0.065450 0.000000
vt 0.571726 -0.130900 0.000000
vt 0.000000 -0.130900 0.000000
vt 0.571726 -0.196350 0.000000
vt -0.000000 -0.196350 0.000000
vt -0.250000 0.571726 0.000000
vt -5.750000 0.571726 0.000000
vt -0.250000 0.000000 0.000000
vt -5.750000 0.000000 0.000000
vt 7.000000 0.950000 0.000000
vt 8.000000 0.000000 0.000000
vt 7.000000 1.050000 0.000000
vt 8.000000 2.000000 0.000000
vt 6.991481 1.114705 0.000000
vt 6.966506 1.175000 0.000000
vt 6.926777 1.226777 0.000000
vt 6.875000 1.266506 0.000000
vt 6.814705 1.291481 0.000000
vt 6.750000 1.300000 0.000000
vt -0.000000 2.000000 0.000000
vt 1.250000 1.300000 0.000000
vt 1.185295 1.291481 0.000000
vt 1.125000 1.266506 0.000000
vt 1.073223 1.226777 0.000000
vt 1.033494 1.175000 0.000000
vt 1.008519 1.114705 0.000000
vt 1.000000 1.050000 0.000000
vt -0.000000 0.000000 0.000000
vt 1.000000 0.950000 0.000000
vt 1.008519 0.885295 0.000000
vt 1.033494 0.825000 0.000000
vt 1.073223 0.773223 0.000000
vt 1.125000 0.733494 0.000000
vt 1.185295 0.708519 0.000000
vt 1.250000 0.700000 0.000000
vt 6.750000 0.700000 0.000000
vt 6.814705 0.708519 0.000000
vt 6.875000 0.733494 0.000000
vt 6.926777 0.773223 0.000000
vt 6.966506 0.825000 0.000000
vt 6.991481 0.885295 0.000000
vt 8.000000 1.428274 0.000000
vt 0.000000 1.428274 0.000000
vt 8.000000 0.000000 0.000000
vt 0.000000 0.000000 0.000000
vt -4.000000 -1.680000 0.000000
vt 4.000000 -1.680000 0.000000
vt -4.000000 1.700000 0.000000
vt 4.000000 1.700000 0.000000
vt 6.780000 2.000000 0.000000
vt 5.400000 1.428274 0.000000
vt 6.780000 0.400000 0.000000
vt 5.400000 0.000000 0.000000
vt 8.780000 0.000000 0.000000
vt 2.020000 2.000000 0.000000
vt 3.400000 1.428274 0.000000
vt 2.020000 0.400000 0.000000
vt 3.400000 0.000000 0.000000
vt 0.020000 0.000000 0.000000
vt 0.020000 0.400000 0.000000
vt 8.780000 0.400000 0.000000
vt 8.000000 1.428274 0.000000
vt 0.000000 1.428274 0.000000
vt 8.000000 0.000000 0.000000
vt 0.000000 0.000000 0.000000
vt -5.380000 0.400000 0.000000
vt -5.380000 0.000000 0.000000
vt -3.380000 0.400000 0.000000
vt -2.000000 0.000000 0.000000
vt -2.000000 1.428274 0.000000
vt -3.380000 2.000000 0.000000
vt 0.000000 1.428274 0.000000
vt 1.380000 2.000000 0.000000
vt 1.380000 0.400000 0.000000
vt 0.000000 0.000000 0.000000
vt 3.380000 0.000000 0.000000
vt 3.380000 0.400000 0.000000
vt 4.000000 1.680000 0.000000
vt -4.000000 1.680000 0.000000
vt 4.000000 -1.700000 0.000000
vt -4.000000 -1.700000 0.000000
vn -0.000000 0.100000 -0.000000
vn -0.000000 0.100000 -0.000000
vn -0.000000 0.100000 -0.000000
vn -0.000000 0.100000 -0.000000
vn 0.000000 0.000000 0.100000
vn 0.000000 0.000000 0.100000
vn 0.000000 0.000000 0.100000
vn 0.000000 0.000000 0.100000
vn 0.000000 -0.100000 0.000000
vn 0.000000 -0.100000 0.000000
vn 0.000000 -0.100000 0.000000
vn 0.000000 -0.100000 0.000000
vn 0.000000 0.000000 0.100000
vn 0.000000 0.000000 0.100000
vn 0.000000 0.000000 0.100000
vn 0.000000 0.000000 0.100000
vn -0.000000 0.100000 -0.000000
vn -0.000000 0.100000 -0.000000
vn -0.000000 0.100000 -0.000000
vn -0.000000 0.100000 -0.000000
vn 0.000000 0.000000 0.100000
vn 0.000000 0.000000 0.100000
vn 0.000000 0.000000 0.100000
vn 0.000000 0.000000 0.100000
vn 0.000000 0.000000 0.100000
vn 0.000000 0.000000 0.100000
vn 0.000000 0.000000 0.100000
vn 0.000000 0.000000 0.100000
vn 0.000000 0.000000 0.100000
vn 0.000000 0.000000 0.100000
vn 0.000000 0.000000 0.100000
vn 0.000000 0.000000 0.100000
vn 0.000000 0.000000 0.100000
vn 0.000000 0.000000 0.100000
vn 0.000000 0.000000 0.100000
vn 0.000000 0.000000 0.100000
vn 0.000000 0.000000 0.100000
vn 0.000000 0.000000 0.100000
vn 0.000000 0.000000 0.100000
vn 0.000000 0.000000 0.100000
vn 0.000000 0.000000 0.100000
vn 0.000000 0.000000 0.100000
vn 0.000000 0.000000 0.100000
vn 0.000000 0.000000 0.100000
vn 0.000000 0.000000 0.100000
vn 0.000000 0.000000 0.100000
vn 0.000000 0.000000 0.100000
vn 0.000000 0.000000 0.100000
vn 0.000000 0.000000 0.100000
vn 0.000000 0.000000 0.100000
vn 0.000000 0.000000 0.100000
vn 0.000000 0.000000 0.100000
vn 0.000000 -0.100000 0.000000
vn 0.000000 -0.100000 0.000000
vn 0.000000 -0.100000 0.000000
vn 0.000000 -0.100000 0.000000
vn 0.000000 -0.100000 0.000000
vn 0.000000 -0.100000 0.000000
vn -0.025882 -0.096593 0.000000
vn -0.025882 -0.096593 0.000000
vn -0.050000 -0.086603 0.000000
vn -0.050000 -0.086603 0.000000
vn -0.070711 -0.070711 0.000000
vn -0.070711 -0.070711 0.000000
vn -0.086603 -0.050000 0.000000
vn -0.086603 -0.050000 0.000000
vn -0.096593 -0.025882 0.000000
vn -0.096593 -0.025882 0.000000
vn -0.100000 0.000000 -0.000000
vn -0.100000 0.000000 -0.000000
vn -0.100000 0.000000 0.000000
vn -0.100000 0.000000 0.000000
vn -0.096593 0.025882 -0.000000
vn -0.096593 0.025882 -0.000000
vn -0.086603 0.050000 -0.000000
vn -0.086603 0.050000 -0.000000
vn -0.070711 0.070711 -0.000000
vn -0.070711 0.070711 -0.000000
vn -0.050000 0.086603 -0.000000
vn -0.050000 0.086603 -0.000000
vn -0.025882 0.096593 -0.000000
vn -0.025882 0.096593 -0.000000
vn 0.000000 0.100000 0.000000
vn 0.000000 0.100000 0.000000
vn -0.000000 0.100000 -0.000000
vn -0.000000 0.100000 -0.000000
vn 0.025882 0.096593 0.000000
vn 0.025882 0.096593 0.000000
vn 0.050000 0.086603 0.000000
vn 0.050000 0.086603 0.000000
vn 0.070711 0.070711 0.000000
vn 0.070711 0.070711 0.000000
vn 0.086603 0.050000 0.000000
vn 0.086603 0.050000 0.000000
vn 0.096593 0.025882 0.000000
vn 0.096593 0.025882 0.000000
vn 0.100000 0.000000 0.000000
vn 0.100000 0.000000 0.000000
vn 0.100000 0.000000 0.000000
vn 0.100000 0.000000 0.000000
vn 0.096593 -0.025882 0.000000
vn 0.096593 -0.025882 0.000000
vn 0.086603 -0.050000 0.000000
vn 0.086603 -0.050000 0.000000
vn 0.070711 -0.070711 0.000000
vn 0.070711 -0.070711 0.000000
vn 0.050000 -0.086603 0.000000
vn 0.050000 -0.086603 0.000000
vn 0.025882 -0.096593 0.000000
vn 0.025882 -0.096593 0.000000
vn 0.000000 -0.100000 0.000000
vn 0.000000 -0.100000 0.000000
vn 0.000000 0.000000 -0.100000
vn 0.000000 0.000000 -0.100000
vn 0.000000 0.000000 -0.100000
vn 0.000000 0.000000 -0.100000
vn 0.000000 0.000000 -0.100000
vn 0.000000 0.000000 -0.100000
vn 0.000000 0.000000 -0.100000
vn 0.000000 0.000000 -0.100000
vn 0.000000 0.000000 -0.100000
vn 0.000000 0.000000 -0.100000
vn 0.000000 0.000000 -0.100000
vn 0.000000 0.000000 -0.100000
vn 0.000000 0.000000 -0.100000
vn 0.000000 0.000000 -0.100000
vn 0.000000 0.000000 -0.100000
vn 0.000000 0.000000 -0.100000
vn 0.000000 0.000000 -0.100000
vn 0.000000 0.000000 -0.100000
vn 0.000000 0.000000 -0.100000
vn 0.000000 0.000000 -0.100000
vn 0.000000 0.000000 -0.100000
vn 0.000000 0.000000 -0.100000
vn 0.000000 0.000000 -0.100000
vn 0.000000 0.000000 -0.100000
vn 0.000000 0.000000 -0.100000
vn 0.000000 0.000000 -0.100000
vn 0.000000 0.000000 -0.100000
vn 0.000000 0.000000 -0.100000
vn 0.000000 0.000000 -0.100000
vn 0.000000 0.000000 -0.100000
vn 0.000000 0.000000 -0.100000
vn 0.000000 0.000000 -0.100000
vn 0.000000 -0.100000 0.000000
vn 0.000000 -0.100000 0.000000
vn 0.000000 -0.100000 0.000000
vn 0.000000 -0.100000 0.000000
vn 0.000000 0.000000 -0.100000
vn 0.000000 0.000000 -0.100000
vn 0.000000 0.000000 -0.100000
vn 0.000000 0.000000 -0.100000
vn 0.100000 0.000000 0.000000
vn 0.100000 0.000000 0.000000
vn 0.100000 0.000000 0.000000
vn 0.100000 0.000000 0.000000
vn 0.100000 0.000000 0.000000
vn 0.100000 0.000000 0.000000
vn 0.100000 0.000000 0.000000
vn 0.100000 0.000000 0.000000
vn 0.100000 0.000000 0.000000
vn 0.100000 0.000000 0.000000
vn 0.100000 0.000000 0.000000
vn 0.100000 0.000000 0.000000
vn 0.000000 0.100000 0.000000
vn 0.000000 0.100000 0.000000
vn 0.000000 0.100000 0.000000
vn 0.000000 0.100000 0.000000
vn -0.100000 0.000000 0.000000
vn -0.100000 0.000000 0.000000
vn -0.100000 0.000000 0.000000
vn -0.100000 0.000000 0.000000
vn -0.100000 0.000000 0.000000
vn -0.100000 0.000000 0.000000
vn -0.100000 0.000000 0.000000
vn -0.100000 0.000000 0.000000
vn -0.100000 0.000000 0.000000
vn -0.100000 0.000000 0.000000
vn -0.100000 0.000000 0.000000
vn -0.100000 0.000000 0.000000
vn 0.000000 0.000000 -0.100000
vn 0.000000 0.000000 -0.100000
vn 0.000000 0.000000 -0.100000
vn 0.000000 0.000000 -0.100000
usemtl Steel_-_Satin
f 1/1/1 2/2/2 4/3/3
f 4/3/3 2/2/2 3/4/4
f 5/5/5 6/6/6 3/7/7
f 3/7/7 6/6/6 4/8/8
f 7/9/9 8/10/10 10/11/11
f 10/11/11 8/10/10 9/12/12
f 11/13/13 12/14/14 9/15/15
f 9/15/15 12/14/14 10/16/16
f 5/17/17 13/18/18 6/19/19
f 6/19/19 13/18/18 14/20/20
f 1/21/21 23/22/22 2/23/23
f 2/23/23 23/22/22 24/24/24
f 2/23/23 24/24/24 25/25/25
f 8/26/26 16/27/27 1/21/21
f 1/21/21 16/27/27 17/28/28
f 1/21/21 17/28/28 18/29/29
f 7/30/30 37/31/31 8/26/26
f 8/26/26 37/31/31 38/32/32
f 8/26/26 38/32/32 39/33/33
f 2/23/23 29/34/34 7/30/30
f 7/30/30 29/34/34 30/35/35
f 7/30/30 30/35/35 31/36/36
f 42/37/37 15/38/38 8/26/26
f 8/26/26 15/38/38 16/27/27
f 18/29/29 19/39/39 1/21/21
f 1/21/21 19/39/39 20/40/40
f 1/21/21 20/40/40 21/41/41
f 21/41/41 22/42/42 1/21/21
f 1/21/21 22/42/42 23/22/22
f 25/25/25 26/43/43 2/23/23
f 2/23/23 26/43/43 27/44/44
f 2/23/23 27/44/44 28/45/45
f 28/45/45 29/34/34 2/23/23
f 31/36/36 32/46/46 7/30/30
f 7/30/30 32/46/46 33/47/47
f 7/30/30 33/47/47 34/48/48
f 34/48/48 35/49/49 7/30/30
f 7/30/30 35/49/49 36/50/50
f 7/30/30 36/50/50 37/31/31
f 39/33/33 40/51/51 8/26/26
f 8/26/26 40/51/51 41/52/52
f 8/26/26 41/52/52 42/37/37
f 11/53/53 43/54/54 12/55/55
f 12/55/55 43/54/54 44/56/56
f 23/57/57 45/58/58 24/59/59
f 24/59/59 45/58/58 46/60/60
f 24/59/59 46/60/60 25/61/61
f 25/61/61 46/60/60 47/62/62
f 25/61/61 47/62/62 26/63/63
f 26/63/63 47/62/62 48/64/64
f 26/63/63 48/64/64 27/65/65
f 27/65/65 48/64/64 49/66/66
f 27/65/65 49/66/66 28/67/67
f 28/67/67 49/66/66 50/68/68
f 28/67/67 50/68/68 29/69/69
f 29/69/69 50/68/68 51/70/70
f 51/71/70 52/72/71 29/73/69
f 29/73/69 52/72/71 30/74/72
f 30/75/72 52/76/71 31/77/73
f 31/77/73 52/76/71 53/78/74
f 31/77/73 53/78/74 32/79/75
f 32/79/75 53/78/74 54/80/76
f 32/79/75 54/80/76 33/81/77
f 33/81/77 54/80/76 55/82/78
f 33/81/77 55/82/78 34/83/79
f 34/83/79 55/82/78 56/84/80
f 34/83/79 56/84/80 35/85/81
f 35/85/81 56/84/80 57/86/82
f 35/85/81 57/86/82 36/87/83
f 36/87/83 57/86/82 58/88/84
f 58/89/84 59/90/85 36/91/83
f 36/91/83 59/90/85 37/92/86
f 37/93/86 59/94/85 38/95/87
f 38/95/87 59/94/85 60/96/88
f 38/95/87 60/96/88 39/97/89
f 39/97/89 60/96/88 61/98/90
f 39/97/89 61/98/90 40/99/91
f 40/99/91 61/98/90 62/100/92
f 40/99/91 62/100/92 41/101/93
f 41/101/93 62/100/92 63/102/94
f 41/101/93 63/102/94 42/103/95
f 42/103/95 63/102/94 64/104/96
f 42/103/95 64/104/96 15/105/97
f 15/105/97 64/104/96 65/106/98
f 65/107/98 66/108/99 15/109/97
f 15/109/97 66/108/99 16/110/100
f 16/111/100 66/112/99 17/113/101
f 17/113/101 66/112/99 67/114/102
f 17/113/101 67/114/102 18/115/103
f 18/115/103 67/114/102 68/116/104
f 18/115/103 68/116/104 19/117/105
f 19/117/105 68/116/104 69/118/106
f 19/117/105 69/118/106 20/119/107
f 20/119/107 69/118/106 70/120/108
f 20/119/107 70/120/108 21/121/109
f 21/121/109 70/120/108 71/122/110
f 21/121/109 71/122/110 22/123/111
f 22/123/111 71/122/110 72/124/112
f 23/125/57 22/126/111 45/127/58
f 45/127/58 22/126/111 72/128/112
f 65/129/113 76/130/114 66/131/115
f 66/131/115 76/130/114 73/132/116
f 66/131/115 73/132/116 67/133/117
f 67/133/117 73/132/116 68/134/118
f 68/134/118 73/132/116 69/135/119
f 69/135/119 73/132/116 70/136/120
f 70/136/120 73/132/116 71/137/121
f 71/137/121 73/132/116 72/138/122
f 72/138/122 73/132/116 74/139/123
f 72/138/122 74/139/123 45/140/124
f 45/140/124 74/139/123 46/141/125
f 46/141/125 74/139/123 47/142/126
f 47/142/126 74/139/123 48/143/127
f 48/143/127 74/139/123 49/144/128
f 49/144/128 74/139/123 50/145/129
f 50/145/129 74/139/123 51/146/130
f 51/146/130 74/139/123 75/147/131
f 51/146/130 75/147/131 52/148/132
f 52/148/132 75/147/131 53/149/133
f 53/149/133 75/147/131 54/150/134
f 54/150/134 75/147/131 55/151/135
f 55/151/135 75/147/131 56/152/136
f 56/152/136 75/147/131 57/153/137
f 57/153/137 75/147/131 58/154/138
f 58/154/138 75/147/131 76/130/114
f 58/154/138 76/130/114 59/155/139
f 59/155/139 76/130/114 60/156/140
f 60/156/140 76/130/114 61/157/141
f 61/157/141 76/130/114 62/158/142
f 62/158/142 76/130/114 63/159/143
f 63/159/143 76/130/114 64/160/144
f 64/160/144 76/130/114 65/129/113
f 74/161/145 73/162/146 78/163/147
f 78/163/147 73/162/146 77/164/148
f 14/165/149 13/166/150 77/167/151
f 77/167/151 13/166/150 78/168/152
f 2/169/153 74/170/154 3/171/155
f 3/171/155 74/170/154 78/172/156
f 3/171/155 78/172/156 13/173/157
f 2/169/153 7/174/158 74/170/154
f 74/170/154 7/174/158 75/175/159
f 75/175/159 7/174/158 10/176/160
f 75/175/159 10/176/160 79/177/161
f 79/177/161 10/176/160 44/178/162
f 44/178/162 10/176/160 12/179/163
f 13/173/157 5/180/164 3/171/155
f 76/181/165 75/182/166 80/183/167
f 80/183/167 75/182/166 79/184/168
f 6/185/169 14/186/170 4/187/171
f 4/187/171 14/186/170 77/188/172
f 4/187/171 77/188/172 73/189/173
f 4/187/171 73/189/173 1/190/174
f 1/190/174 73/189/173 76/191/175
f 1/190/174 76/191/175 8/192/176
f 8/192/176 76/191/175 9/193/177
f 9/193/177 76/191/175 80/194/178
f 9/193/177 80/194/178 43/195/179
f 43/195/179 11/196/180 9/193/177
f 44/197/181 43/198/182 79/199/183
f 79/199/183 43/198/182 80/200/184

# 80 vertices
# 200 texture params
# 184 normals
# 160 facets

# 1 groups
